<?xml version="1.0" encoding="UTF-8" standalone="no"?><!DOCTYPE svg PUBLIC "-//W3C//DTD SVG 1.1//EN" "http://www.w3.org/Graphics/SVG/1.1/DTD/svg11.dtd"><svg width="100%" height="100%" viewBox="0 0 64 64" version="1.1" xmlns="http://www.w3.org/2000/svg" xmlns:xlink="http://www.w3.org/1999/xlink" xml:space="preserve" style="fill-rule:evenodd;clip-rule:evenodd;stroke-linejoin:round;stroke-miterlimit:1.41421;"><g id="Layer.-1"><path d="M2.241,12.231l0,38.344c0.01,5.846 4.741,10.577 10.587,10.587l38.344,0c5.846,-0.01 10.576,-4.741 10.587,-10.587l0,-38.344c-0.011,-5.845 -4.741,-10.577 -10.587,-10.586l-38.344,0c-5.846,0.009 -10.577,4.741 -10.587,10.586" style="fill:#f6eb16;fill-rule:nonzero;"/><path d="M4.034,13.984l0,36.033c0.009,5.495 4.455,9.941 9.949,9.95l36.034,0c5.494,-0.009 9.94,-4.455 9.949,-9.95l0,-36.033c-0.009,-5.495 -4.455,-9.941 -9.949,-9.95l-36.034,0c-5.494,0.009 -9.94,4.455 -9.949,9.95m9.949,50.016c-7.723,-0.001 -13.982,-6.26 -13.983,-13.983l0,-36.033c0.001,-7.723 6.26,-13.982 13.983,-13.984l36.034,0c7.723,0.002 13.981,6.261 13.983,13.984l0,36.033c-0.002,7.723 -6.26,13.982 -13.983,13.983l-36.034,0l0,0Z" style="fill:#231f20;fill-rule:nonzero;"/><path d="M0,48.865l0,-34.882c0.001,-7.722 6.26,-13.981 13.983,-13.983l36.034,0c2.429,0 4.714,0.621 6.705,1.71c-26.021,8.991 -46.606,26.038 -56.722,47.155l0,0Z" style="fill:#fff;fill-opacity:0.109804;"/><path d="M9.379,7.545l14.751,19.661l2.158,-10.069l10.746,8.046l-12.904,-15.238l-1.678,8.871l-13.073,-11.271l0,0Z" style="fill:#231f20;fill-rule:nonzero;"/><path d="M45.77,21.67c0,2.493 -2.021,4.515 -4.515,4.515c-2.494,0 -4.515,-2.022 -4.515,-4.515c0,-2.494 2.021,-4.516 4.515,-4.516c2.494,0 4.515,2.022 4.515,4.516" style="fill:#231f20;fill-rule:nonzero;"/><path d="M30.402,33.733c3.945,-0.491 7.889,-0.982 11.833,-1.474c1.583,-0.197 3.16,-1.504 4.509,-2.279c1.813,-1.04 3.626,-2.08 5.439,-3.121c1.988,-1.141 0.198,-4.214 -1.796,-3.072c-1.558,0.895 -3.118,1.79 -4.675,2.685c-1.034,0.594 -2.068,1.186 -3.101,1.78c-0.335,0.191 -0.67,0.384 -1.005,0.576c-0.634,0.363 1.203,-0.197 0.529,-0.113c-3.911,0.488 -7.822,0.975 -11.733,1.461c-2.245,0.28 -2.272,3.842 0,3.557" style="fill:#231f20;fill-rule:nonzero;"/><path d="M24.821,53.016c1.158,1.329 1.734,1.505 3.273,2.345c0.725,0.395 1.554,0.28 2.155,-0.279c2.829,-2.628 5.867,-5.625 8.335,-8.577c6.281,-7.508 5.22,-9.28 5.312,-14.787c0.039,-2.295 -4.37,-2.054 -4.408,0.237c-0.081,4.914 -0.591,8.294 -3.488,12.11c-2.142,2.823 -5.661,6.082 -8.266,8.502c0.719,-0.092 1.437,-0.184 2.155,-0.278c-1.298,-0.707 -1.579,-0.67 -2.553,-1.788c-1.51,-1.733 -4.015,0.794 -2.515,2.515" style="fill:#231f20;fill-rule:nonzero;"/><path d="M22.274,39.25c-0.094,1.647 -0.188,1.501 -0.282,3.147c-0.072,1.258 1.183,1.885 2.252,1.714c5.202,-0.826 10.23,-1.116 15.38,-2.257c2.238,-0.496 1.288,-3.925 -0.946,-3.43c-5.216,1.156 -9.767,1.367 -15.38,2.257c0.75,0.573 1.5,1.143 2.251,1.716c0.095,-1.646 0.189,-1.5 0.282,-3.147c0.132,-2.292 -3.427,-2.28 -3.557,0" style="fill:#231f20;fill-rule:nonzero;"/><path d="M38.728,31.144c0,0 0.012,6.287 -0.862,8.471c1.747,0.656 5.599,-0.718 5.599,-0.718c0,0 1.149,-8.136 1.149,-8.9c-0.547,0 -5.886,1.147 -5.886,1.147" style="fill:#231f20;fill-rule:nonzero;"/></g></svg>
